<svg xmlns="http://www.w3.org/2000/svg" xmlns:xlink="http://www.w3.org/1999/xlink" width="16px" height="14px" viewBox="0 0 16 14" version="1.1">
    <title>照片信息</title>
    <desc>Created with Sketch.</desc>
    <defs/>
    <g id="Page-1" stroke="none" stroke-width="1" fill="none" fill-rule="evenodd">
        <g id="Desktop-HD" transform="translate(-1003.000000, -132.000000)" fill="#FFFFFF">
            <g id="照片信息" transform="translate(1003.000000, 132.000000)">
                <g id="图层_1">
                    <g id="XMLID_518_">
                        <path d="M13.1,13.6 L2.9,13.6 C1.6,13.6 0.5,12.5 0.5,11.2 L0.5,4.3 C0.5,3 1.6,1.9 2.9,1.9 L4.1,1.9 C4.5,1 5.3,0.4 6.3,0.4 L9.6,0.4 C10.6,0.4 11.5,1 11.8,1.9 L13,1.9 C14.3,1.9 15.4,3 15.4,4.3 L15.4,11.2 C15.5,12.5 14.4,13.6 13.1,13.6 L13.1,13.6 Z M2.9,2.9 C2.1,2.9 1.5,3.5 1.5,4.3 L1.5,11.2 C1.5,12 2.1,12.6 2.9,12.6 L13.1,12.6 C13.9,12.6 14.5,12 14.5,11.2 L14.5,4.3 C14.5,3.5 13.9,2.9 13.1,2.9 L11.6,2.9 C11.4,2.9 11.2,2.7 11.1,2.5 C11,1.9 10.4,1.4 9.7,1.4 L6.3,1.4 C5.6,1.4 5.1,1.9 4.9,2.5 C4.9,2.7 4.7,2.9 4.5,2.9 L2.9,2.9 L2.9,2.9 Z" id="XMLID_5_"/>
                        <path d="M8,11.1 C6,11.1 4.3,9.4 4.3,7.4 C4.3,5.4 6,3.7 8,3.7 C10,3.7 11.7,5.4 11.7,7.4 C11.7,9.5 10,11.1 8,11.1 L8,11.1 Z M8,4.8 C6.5,4.8 5.3,6 5.3,7.4 C5.3,8.8 6.5,10.1 8,10.1 C9.5,10.1 10.7,8.9 10.7,7.4 C10.7,5.9 9.5,4.8 8,4.8 L8,4.8 Z" id="XMLID_2_"/>
                    </g>
                </g>
            </g>
        </g>
    </g>
</svg>